<svg width="20" height="14" viewBox="0 0 20 14" fill="none" xmlns="http://www.w3.org/2000/svg">
<path d="M19.9948 0.386715C19.9961 0.378723 19.9984 0.370731 19.9991 0.362739C20.0014 0.338098 19.9988 0.313124 19.9958 0.288149C19.9951 0.281822 19.9961 0.275829 19.9951 0.269502C19.9891 0.236536 19.9781 0.204236 19.9618 0.173267C19.9592 0.167939 19.9555 0.162945 19.9525 0.157617C19.9518 0.156951 19.9518 0.155952 19.9515 0.154953C19.9512 0.154287 19.9502 0.153954 19.9498 0.152955C19.9475 0.149292 19.9455 0.145296 19.9432 0.141966C19.9225 0.111664 19.8976 0.0866893 19.8696 0.0653779C19.8633 0.060716 19.8559 0.0580521 19.8493 0.0537232C19.8246 0.0374066 19.7987 0.0240869 19.7707 0.0150961C19.7584 0.0111002 19.746 0.00910238 19.7334 0.00677144C19.7091 0.00177656 19.6848 -0.00055453 19.6595 0.000111453C19.6461 0.000444445 19.6335 0.00111037 19.6202 0.00310832C19.6115 0.00444029 19.6032 0.00310849 19.5945 0.00510644L0.265689 3.99967C0.128164 4.02831 0.0229381 4.13986 0.00329161 4.27906C-0.0163549 4.41825 0.0532404 4.55477 0.177446 4.62037L5.71577 7.54171L6.6871 12.9318C6.68644 12.9358 6.68744 12.9402 6.6871 12.9442C6.68377 12.9708 6.68344 12.9968 6.68677 13.0231C6.68843 13.0364 6.6901 13.0491 6.69343 13.062C6.70109 13.0937 6.71341 13.1233 6.73006 13.1513C6.73339 13.1566 6.73339 13.1629 6.73705 13.1683C6.73805 13.1699 6.73971 13.1713 6.74105 13.1726C6.74538 13.1789 6.75137 13.1839 6.75636 13.1902C6.77202 13.2096 6.78833 13.2272 6.80698 13.2422C6.80998 13.2445 6.81197 13.2482 6.8153 13.2505C6.8203 13.2542 6.82596 13.2552 6.83095 13.2585C6.85127 13.2718 6.87225 13.2828 6.89456 13.2915C6.90355 13.2948 6.91187 13.2988 6.9212 13.3015C6.95116 13.3101 6.98213 13.3161 7.01343 13.3161H7.01443C7.01577 13.3161 7.0171 13.3155 7.01843 13.3155C7.02409 13.3158 7.02975 13.3161 7.03541 13.3161C7.12765 13.3161 7.2109 13.2748 7.2725 13.2112L10.9617 10.7517L14.8244 13.2625C14.879 13.2978 14.9423 13.3161 15.0059 13.3161C15.0409 13.3161 15.0765 13.3105 15.1108 13.2991C15.2067 13.2672 15.2833 13.1932 15.3182 13.098L19.9788 0.447985C19.9831 0.436664 19.9868 0.425009 19.9898 0.413021C19.9911 0.408026 19.9915 0.403031 19.9925 0.39837C19.9935 0.394707 19.9941 0.390711 19.9948 0.386715ZM16.1381 2.5122L8.1486 8.38651C8.13562 8.39616 8.12529 8.40815 8.11397 8.41947C8.10964 8.42347 8.10531 8.4268 8.10165 8.43113C8.09466 8.43879 8.08833 8.44645 8.082 8.45477C8.07601 8.46276 8.07135 8.47109 8.06602 8.47941C8.0537 8.49939 8.04338 8.52004 8.03539 8.54201C8.03372 8.54634 8.03106 8.54967 8.02973 8.554C8.02939 8.55533 8.02806 8.556 8.02773 8.55733L7.112 11.5333L6.38641 7.50708L16.1381 2.5122ZM7.62814 12.174L8.53587 9.1757L10.3533 10.3572L7.62814 12.174ZM17.3302 1.15326L6.01746 6.94765L1.30895 4.4642L17.3302 1.15326ZM14.8377 12.477L8.93113 8.63792L18.9722 1.25482L14.8377 12.477Z" fill="white"/>
</svg>
