<svg width="11" height="15" viewBox="0 0 11 15" fill="none" xmlns="http://www.w3.org/2000/svg">
<path d="M3.48242 13.125C3.48242 12.8646 3.39128 12.6432 3.20898 12.4609C3.02669 12.2786 2.80534 12.1875 2.54492 12.1875C2.28451 12.1875 2.06315 12.2786 1.88086 12.4609C1.69857 12.6432 1.60742 12.8646 1.60742 13.125C1.60742 13.3854 1.69857 13.6068 1.88086 13.7891C2.06315 13.9714 2.28451 14.0625 2.54492 14.0625C2.80534 14.0625 3.02669 13.9714 3.20898 13.7891C3.39128 13.6068 3.48242 13.3854 3.48242 13.125ZM3.48242 1.875C3.48242 1.61458 3.39128 1.39323 3.20898 1.21094C3.02669 1.02865 2.80534 0.9375 2.54492 0.9375C2.28451 0.9375 2.06315 1.02865 1.88086 1.21094C1.69857 1.39323 1.60742 1.61458 1.60742 1.875C1.60742 2.13542 1.69857 2.35677 1.88086 2.53906C2.06315 2.72135 2.28451 2.8125 2.54492 2.8125C2.80534 2.8125 3.02669 2.72135 3.20898 2.53906C3.39128 2.35677 3.48242 2.13542 3.48242 1.875ZM9.73242 3.125C9.73242 2.86458 9.64128 2.64323 9.45898 2.46094C9.27669 2.27865 9.05534 2.1875 8.79492 2.1875C8.53451 2.1875 8.31315 2.27865 8.13086 2.46094C7.94857 2.64323 7.85742 2.86458 7.85742 3.125C7.85742 3.38542 7.94857 3.60677 8.13086 3.78906C8.31315 3.97135 8.53451 4.0625 8.79492 4.0625C9.05534 4.0625 9.27669 3.97135 9.45898 3.78906C9.64128 3.60677 9.73242 3.38542 9.73242 3.125ZM10.6699 3.125C10.6699 3.46354 10.5853 3.77767 10.416 4.06738C10.2467 4.3571 10.0189 4.58333 9.73242 4.74609C9.7194 6.61458 8.98372 7.96224 7.52539 8.78906C7.08919 9.03646 6.42839 9.30013 5.54297 9.58008C4.70964 9.84049 4.15788 10.0716 3.8877 10.2734C3.61751 10.4753 3.48242 10.8008 3.48242 11.25V11.5039C3.76888 11.6667 3.99674 11.8929 4.16602 12.1826C4.33529 12.4723 4.41992 12.7865 4.41992 13.125C4.41992 13.6458 4.23763 14.0885 3.87305 14.4531C3.50846 14.8177 3.06576 15 2.54492 15C2.02409 15 1.58138 14.8177 1.2168 14.4531C0.852214 14.0885 0.669922 13.6458 0.669922 13.125C0.669922 12.7865 0.754557 12.4723 0.923828 12.1826C1.0931 11.8929 1.32096 11.6667 1.60742 11.5039V3.49609C1.32096 3.33333 1.0931 3.1071 0.923828 2.81738C0.754557 2.52767 0.669922 2.21354 0.669922 1.875C0.669922 1.35417 0.852214 0.911458 1.2168 0.546875C1.58138 0.182292 2.02409 0 2.54492 0C3.06576 0 3.50846 0.182292 3.87305 0.546875C4.23763 0.911458 4.41992 1.35417 4.41992 1.875C4.41992 2.21354 4.33529 2.52767 4.16602 2.81738C3.99674 3.1071 3.76888 3.33333 3.48242 3.49609V8.34961C3.83398 8.18034 4.33529 7.99479 4.98633 7.79297C5.3444 7.68229 5.62923 7.58626 5.84082 7.50488C6.05241 7.4235 6.2819 7.32259 6.5293 7.20215C6.77669 7.08171 6.96875 6.95312 7.10547 6.81641C7.24219 6.67969 7.37402 6.51367 7.50098 6.31836C7.62793 6.12305 7.71908 5.89681 7.77441 5.63965C7.82975 5.38249 7.85742 5.08464 7.85742 4.74609C7.57096 4.58333 7.3431 4.3571 7.17383 4.06738C7.00456 3.77767 6.91992 3.46354 6.91992 3.125C6.91992 2.60417 7.10221 2.16146 7.4668 1.79688C7.83138 1.43229 8.27409 1.25 8.79492 1.25C9.31576 1.25 9.75846 1.43229 10.123 1.79688C10.4876 2.16146 10.6699 2.60417 10.6699 3.125Z" fill="white"/>
</svg>
