<svg width="20" height="20" viewBox="0 0 20 20" fill="none" xmlns="http://www.w3.org/2000/svg">
<path d="M17.0725 2.05161C15.1837 0.728674 12.6721 0 10.001 0C7.32937 0 4.81836 0.728674 2.92949 2.05161C-0.566114 4.49952 -1.00052 9.10532 1.98871 11.8958L10.001 20L18.0013 11.9072C21.0025 9.10532 20.5681 4.49952 17.0725 2.05161ZM17.1555 11.4802L10.001 18.7165L2.8351 11.4689C0.123829 8.93694 0.512345 4.77747 3.66741 2.56807C5.35915 1.3832 7.60838 0.7305 10.001 0.7305C12.3936 0.7305 14.6429 1.3832 16.3351 2.56807C19.4902 4.77747 19.8787 8.93694 17.1555 11.4802Z" fill="white"/>
<path d="M10.0567 4.40002C8.64725 4.40002 7.5 5.54728 7.5 6.95678C7.5 8.36628 8.64725 9.51353 10.0567 9.51353C11.4662 9.51353 12.6135 8.36628 12.6135 6.95678C12.6135 5.54728 11.4662 4.40002 10.0567 4.40002ZM10.0567 8.78303C9.04975 8.78303 8.2305 7.96377 8.2305 6.95678C8.2305 5.94978 9.04975 5.13052 10.0567 5.13052C11.0637 5.13052 11.883 5.94978 11.883 6.95678C11.883 7.96377 11.0637 8.78303 10.0567 8.78303Z" fill="white"/>
</svg>
