<svg width="20" height="19" viewBox="0 0 20 19" fill="none" xmlns="http://www.w3.org/2000/svg">
<path d="M18.338 14.2963L15.1537 12.7043C14.8533 12.554 14.6667 12.252 14.6667 11.916V10.789C14.743 10.6957 14.8233 10.5893 14.9063 10.472C15.3193 9.88867 15.6503 9.23933 15.891 8.539C16.3613 8.32333 16.6667 7.85833 16.6667 7.33333V6C16.6667 5.679 16.5467 5.368 16.3333 5.125V3.352C16.352 3.16867 16.4253 2.07733 15.636 1.177C14.9513 0.396 13.8403 0 12.3333 0C10.8263 0 9.71533 0.396 9.03067 1.17667C8.55233 1.72233 8.39133 2.337 8.34267 2.77833C7.77133 2.483 7.098 2.33333 6.33333 2.33333C2.87033 2.33333 2.66867 5.285 2.66667 5.33333V6.85967C2.45067 7.095 2.33333 7.36667 2.33333 7.63633V8.78767C2.33333 9.14733 2.49433 9.48267 2.77033 9.70933C3.04533 10.746 3.72167 11.5293 3.985 11.8043V12.7187C3.985 12.981 3.84233 13.2217 3.59467 13.357L1.377 14.748C0.527667 15.2113 0 16.1003 0 17.0677V18.3333H20V16.9857C20 15.8397 19.363 14.809 18.338 14.2963ZM4.66667 16.9207V17.6667H0.666667V17.0677C0.666667 16.3443 1.06133 15.6797 1.71367 15.3233L3.931 13.9323C4.37533 13.69 4.65133 13.2253 4.65133 12.7187V11.5217L4.54533 11.4227C4.53667 11.4147 3.651 10.578 3.38933 9.43767L3.359 9.30567L3.245 9.23233C3.09167 9.133 3 8.96667 3 8.78767V7.63633C3 7.51633 3.08167 7.37367 3.22367 7.245L3.33333 7.146L3.33267 5.35267C3.33867 5.257 3.51233 3 6.33333 3C7.131 3 7.80267 3.18433 8.33333 3.548V5.125C8.12 5.368 8 5.679 8 6V7.33333C8 7.43467 8.01167 7.53433 8.03367 7.631C8.04267 7.66967 8.06067 7.705 8.073 7.74233C8.09133 7.79833 8.106 7.856 8.13167 7.909C8.132 7.90967 8.13233 7.91 8.13267 7.91067C8.218 8.08667 8.34233 8.244 8.499 8.36967C8.50067 8.376 8.50267 8.38167 8.50433 8.38767C8.52433 8.464 8.54533 8.54 8.568 8.61433L8.595 8.70133C8.59967 8.71667 8.60533 8.73233 8.61033 8.74767C8.622 8.78367 8.63333 8.81933 8.64533 8.85467C8.66533 8.913 8.68633 8.97333 8.71067 9.039C8.721 9.06633 8.73233 9.091 8.743 9.118C8.77033 9.18767 8.79767 9.255 8.82633 9.32167C8.83333 9.33767 8.83933 9.355 8.84633 9.37067L8.865 9.41267C8.87367 9.432 8.88267 9.44933 8.89133 9.46833C8.924 9.53967 8.956 9.60867 8.98933 9.67533C8.99467 9.686 8.99967 9.69767 9.005 9.70833C9.026 9.75 9.047 9.78933 9.068 9.82933C9.104 9.898 9.13933 9.96267 9.17467 10.0253C9.192 10.056 9.209 10.086 9.226 10.115C9.274 10.197 9.31967 10.2723 9.364 10.3423C9.37367 10.3573 9.383 10.373 9.39233 10.3873C9.473 10.5123 9.543 10.6137 9.601 10.6927C9.61633 10.7137 9.62967 10.7317 9.64267 10.7493C9.65 10.759 9.66 10.773 9.66633 10.7817V11.8847C9.66633 12.2073 9.49033 12.5033 9.20733 12.658L8.32533 13.139L8.17167 13.1253L8.109 13.257L6.23367 14.28C5.267 14.808 4.66667 15.8193 4.66667 16.9207ZM19.3333 17.6667H5.33333V16.9207C5.33333 16.0637 5.80067 15.276 6.553 14.866L9.52667 13.244C10.0243 12.9723 10.3333 12.4513 10.3333 11.885V10.5457L10.2687 10.468L10.256 10.453C10.2553 10.452 10.2347 10.427 10.201 10.383C10.199 10.3803 10.197 10.3777 10.1947 10.375C10.177 10.352 10.1563 10.3243 10.1327 10.2913C10.1323 10.2907 10.132 10.2903 10.1317 10.2897C10.082 10.2207 10.0197 10.131 9.95033 10.023C9.94867 10.0207 9.94733 10.018 9.94567 10.0157C9.913 9.96467 9.87833 9.909 9.843 9.85C9.84033 9.84567 9.83767 9.84133 9.835 9.83667C9.75967 9.71033 9.67967 9.56733 9.6 9.409C9.6 9.409 9.59967 9.40867 9.59967 9.40833C9.55733 9.32333 9.515 9.234 9.47367 9.141C9.468 9.128 9.462 9.11533 9.45633 9.10233C9.438 9.06067 9.41967 9.017 9.401 8.972C9.39433 8.95567 9.38767 8.93867 9.381 8.922C9.36367 8.87833 9.346 8.83433 9.32733 8.784C9.29333 8.69333 9.26133 8.59867 9.23067 8.501L9.21233 8.44167C9.21033 8.435 9.208 8.42833 9.206 8.42133C9.17467 8.316 9.14467 8.20833 9.11933 8.09767L9.089 7.96567L8.97533 7.89233C8.782 7.76767 8.66667 7.55867 8.66667 7.33333V6C8.66667 5.813 8.746 5.63867 8.89 5.50833L9 5.40933V3.21533L8.991 3.20833C8.97967 2.96767 8.994 2.23 9.532 1.61633C10.0843 0.986 11.027 0.666667 12.3333 0.666667C13.635 0.666667 14.5757 0.983667 15.1287 1.60933C15.7777 2.343 15.6703 3.28167 15.6697 3.28967L15.6667 5.40933L15.7767 5.50867C15.9207 5.63867 16 5.813 16 6V7.33333C16 7.62433 15.8093 7.879 15.526 7.96633L15.36 8.01733L15.3067 8.18233C15.0837 8.876 14.766 9.51667 14.362 10.0867C14.263 10.227 14.1667 10.3513 14.083 10.4463L14 10.541V11.916C14 12.506 14.3277 13.0363 14.8553 13.3003L18.0397 14.8923C18.8377 15.2913 19.3333 16.0933 19.3333 16.9857V17.6667Z" fill="white"/>
</svg>
