<svg width="15" height="15" viewBox="0 0 15 15" fill="none" xmlns="http://www.w3.org/2000/svg">
<path d="M3.38637 9.24157L2.26908 14.0796C2.23449 14.2261 2.24487 14.3797 2.29889 14.5202C2.3529 14.6607 2.44803 14.7816 2.57185 14.8672C2.69567 14.9528 2.84243 14.9991 2.99296 15C3.14348 15.0009 3.29078 14.9564 3.41561 14.8722L7.49858 12.1503L11.5815 14.8722C11.7093 14.957 11.8599 15.0007 12.0132 14.9973C12.1665 14.994 12.315 14.9438 12.4389 14.8534C12.5628 14.7631 12.6561 14.637 12.7062 14.4921C12.7562 14.3472 12.7607 14.1904 12.7191 14.0429L11.3476 9.24382L14.7489 6.18291C14.8579 6.08482 14.9357 5.95695 14.9727 5.81512C15.0097 5.67328 15.0044 5.5237 14.9573 5.38487C14.9102 5.24604 14.8235 5.12406 14.7078 5.034C14.5922 4.94394 14.4527 4.88976 14.3065 4.87816L10.0316 4.53773L8.1817 0.442765C8.12271 0.310907 8.02682 0.198939 7.90561 0.120372C7.78439 0.041806 7.64303 0 7.49858 0C7.35413 0 7.21276 0.041806 7.09155 0.120372C6.97033 0.198939 6.87445 0.310907 6.81546 0.442765L4.96556 4.53773L0.690637 4.87741C0.547006 4.88879 0.409694 4.94131 0.295129 5.02868C0.180564 5.11605 0.0935964 5.23458 0.044631 5.37009C-0.00433445 5.50559 -0.0132244 5.65234 0.0190247 5.79276C0.0512739 5.93319 0.123297 6.06135 0.226476 6.16191L3.38637 9.24157ZM5.52571 5.9977C5.65955 5.98715 5.7881 5.94079 5.89786 5.86348C6.00763 5.78617 6.09458 5.68075 6.14959 5.55828L7.49858 2.57311L8.84757 5.55828C8.90258 5.68075 8.98953 5.78617 9.09929 5.86348C9.20906 5.94079 9.3376 5.98715 9.47145 5.9977L12.4499 6.2339L9.9971 8.44148C9.78414 8.63344 9.6994 8.92888 9.77739 9.20483L10.717 12.4929L7.9155 10.6251C7.79253 10.5425 7.64779 10.4985 7.4997 10.4985C7.35161 10.4985 7.20687 10.5425 7.08391 10.6251L4.15647 12.5769L4.94382 9.16809C4.97269 9.04271 4.96881 8.91202 4.93257 8.78858C4.89632 8.66513 4.82893 8.55309 4.73686 8.46322L2.4588 6.24215L5.52571 5.9977Z" fill="white"/>
</svg>
